<?xml version="1.0" encoding="UTF-8"?>
<svg version="1.1" xmlns="http://www.w3.org/2000/svg" width="4212" height="4212">
<path d="M0 0 C5.63038549 5.63038549 5.63038549 5.63038549 7.98046875 8.53125 C8.75874023 9.4893457 8.75874023 9.4893457 9.55273438 10.46679688 C10.09220703 11.13775391 10.63167969 11.80871094 11.1875 12.5 C12.04504883 13.56057617 12.04504883 13.56057617 12.91992188 14.64257812 C17.16982452 19.9181556 21.3019808 25.27358584 25.41015625 30.66015625 C28.88528049 35.17741068 32.50732963 39.57540339 36.11328125 43.98828125 C39.62336198 48.28936608 43.08417075 52.62376186 46.5 57 C50.44185271 62.04853993 54.45037614 67.03751699 58.5 72 C64.88153998 79.82344133 71.12199109 87.75072065 77.33398438 95.70898438 C83.19893605 103.21783492 89.13955026 110.65662528 95.16357422 118.03857422 C99.11230493 122.88532838 102.9885508 127.7835826 106.8359375 132.7109375 C110.33776455 137.18436975 113.90822679 141.59857554 117.5 146 C122.95927137 152.69278724 128.32386816 159.45317756 133.63964844 166.26025391 C136.4293416 169.82797707 139.23304782 173.38471863 142.03369141 176.94384766 C142.65896729 177.73927979 142.65896729 177.73927979 143.296875 178.55078125 C143.70915227 179.05727175 144.12142955 179.56376225 144.54620007 180.08560095 C146 182 146 182 147.36212292 184.26508343 C149.66702228 187.83220759 151.47264217 190.51096307 155.62154813 191.83938015 C158.88316082 192.16731288 162.04148845 192.20607084 165.31940651 192.15212345 C166.5662317 192.16730159 167.81305689 192.18247974 169.09766465 192.19811782 C172.56263882 192.23899085 176.02545497 192.22385986 179.49050211 192.19961752 C183.25838561 192.18311069 187.025838 192.21861998 190.79359758 192.24746841 C197.39848912 192.29077936 204.00277183 192.30046798 210.60778427 192.2881813 C220.42973076 192.26995714 230.25104116 192.30291988 240.07288712 192.3457203 C258.63524721 192.42461131 277.19736036 192.44202942 295.75986464 192.43995953 C310.094579 192.43859284 324.42920407 192.45239238 338.76389694 192.47691154 C340.82244647 192.48035601 342.88099601 192.48379049 344.93954556 192.48721505 C345.96138684 192.48891519 346.98322811 192.49061532 348.03603427 192.49236697 C349.57158656 192.49491862 349.57158656 192.49491862 351.13816011 192.49752182 C352.16356212 192.49923295 353.18896413 192.50094407 354.24543893 192.50270706 C383.09322758 192.5503472 411.94098398 192.57873676 440.78881264 192.56817722 C442.42065544 192.56759125 442.42065544 192.56759125 444.08546476 192.56699345 C449.59948578 192.56496631 455.11350673 192.56277957 460.62752767 192.56054331 C461.72264932 192.5601014 462.81777097 192.5596595 463.94607812 192.55920421 C466.16068219 192.55830871 468.37528625 192.55740267 470.5898903 192.55648608 C505.04376505 192.54270971 539.49697394 192.59608897 573.95068359 192.70141602 C612.6516299 192.81964661 651.35214837 192.88413435 690.05328691 192.87144893 C694.1799274 192.87028508 698.3065679 192.86931845 702.43320847 192.86848259 C703.44930522 192.86824285 704.46540197 192.86800312 705.51228953 192.86775612 C720.85348684 192.8652795 736.19420401 192.90517825 751.53526688 192.96676826 C768.98449808 193.03680712 786.43274919 193.0513606 803.88204081 192.99164081 C813.64719321 192.95989467 823.40992821 192.97234619 833.17484798 193.04852954 C839.70040649 193.09500765 846.22419154 193.08316722 852.74964469 193.02422652 C856.46726868 192.99227941 860.180203 192.98523876 863.89751895 193.04923994 C879.76945063 193.93214014 879.76945063 193.93214014 893.52074122 187.53412426 C896.44554698 184.2811952 898.73585084 180.81070248 900.85272579 176.99205362 C902.62109241 173.92157483 904.79022437 171.26691191 907 168.5 C907.79535156 167.45714844 908.59070312 166.41429687 909.41015625 165.33984375 C912.88528049 160.82258932 916.50732963 156.42459661 920.11328125 152.01171875 C923.62336198 147.71063392 927.08417075 143.37623814 930.5 139 C934.44185151 133.95146161 938.45031116 128.96242869 942.5 124 C947.02754072 118.45081941 951.49515862 112.86084363 955.90625 107.21875 C959.74108548 102.31682986 963.62722341 97.45740682 967.52197266 92.60302734 C970.85487922 88.44415361 974.15491285 84.26115799 977.4375 80.0625 C981.94258923 74.30382072 986.54116145 68.6257169 991.16381836 62.96118164 C994.655187 58.67568562 998.09811834 54.35679581 1001.5 50 C1005.44195285 44.95153407 1009.4504392 39.96253972 1013.5 35 C1020.42024617 26.5140596 1027.23599189 17.94952064 1033.87109375 9.23828125 C1034.33362549 8.63201904 1034.79615723 8.02575684 1035.27270508 7.40112305 C1036.15710448 6.23954051 1037.03857911 5.07572379 1037.91674805 3.90942383 C1038.92142776 2.58841389 1039.95747795 1.29135447 1041 0 C1041.33 0 1041.66 0 1042 0 C1042 321.75 1042 643.5 1042 975 C1038.33560819 971.33560819 1035.12654437 967.76458841 1032 963.6875 C1027.89944444 958.40246485 1023.73270333 953.17978953 1019.5 948 C1014.99201455 942.47692323 1010.55156716 936.90814741 1006.1640625 931.2890625 C1002.66223649 926.81563158 999.09183079 922.40137622 995.5 918 C990.97245928 912.45081941 986.50484138 906.86084363 982.09375 901.21875 C978.75845272 896.95537 975.38742566 892.72205605 972 888.5 C968.15735633 883.71056443 964.34450173 878.89994408 960.5625 874.0625 C956.05741077 868.30382072 951.45883855 862.6257169 946.83618164 856.96118164 C942.88758877 852.1144637 939.01137874 847.21632716 935.1640625 842.2890625 C931.66223545 837.81563025 928.09177321 833.40142446 924.5 829 C919.04072863 822.30721276 913.67613184 815.54682244 908.36035156 808.73974609 C905.5706584 805.17202293 902.76695218 801.61528137 899.96630859 798.05615234 C899.34103271 797.26072021 899.34103271 797.26072021 898.703125 796.44921875 C898.07771128 795.69400027 898.07771128 795.69400027 897.43966293 794.92352486 C896 793 896 793 894.76511002 790.65278435 C893.08665278 787.80181784 891.66494906 785.9830637 889 784 C884.34968262 783.40072545 880.00070724 784.04287659 875.41329503 784.79928327 C872.14310487 785.33435442 868.86034818 785.75142029 865.57475579 786.17975938 C863.79690937 786.41308969 862.01979747 786.65207616 860.24341381 786.89629328 C788.03155556 796.80517309 709.95546234 801.40095887 649.00095409 755.5419336 C638.2482239 747.24223803 628.31498686 738.13053603 618.625 728.625 C617.88331998 727.90164475 617.14163997 727.1782895 616.3774848 726.43301439 C574.82368391 685.66983769 556.13973436 643.47757357 552.73046875 585.44921875 C552.65777275 584.27419493 552.58507676 583.09917111 552.51017785 581.88854051 C549.30817035 527.56528749 557.26043395 472.81180778 562 419 C640.87 419 719.74 419 801 419 C801 456.95 801 494.9 801 534 C768 534 735 534 701 534 C697.4401075 561.88582461 696.44693627 580.12751767 709.96484375 604.01953125 C723.75651861 623.21926037 723.75651861 623.21926037 758 644 C822.35 644.495 822.35 644.495 888 645 C888 541.05 888 437.1 888 330 C645.78 330 403.56 330 154 330 C154 433.95 154 537.9 154 645 C273.40451864 656.18359491 273.40451864 656.18359491 320.0625 619.3125 C336.35673193 598.49947618 344.39178564 583.419798 344 557.5 C343.01 549.745 342.02 541.99 341 534 C308 534 275 534 241 534 C241 496.05 241 458.1 241 419 C319.87 419 398.74 419 480 419 C491.49378376 549.49744968 491.49378376 549.49744968 489.26953125 585.44921875 C489.19686043 586.68613268 489.12418961 587.9230466 489.04931664 589.19744277 C485.47333422 647.06440386 464.64965654 688.36760986 423.375 728.625 C422.63479221 729.35118908 421.89458442 730.07737816 421.13194609 730.82557297 C374.58389204 776.2403769 326.52476083 793.00342458 261.93966651 792.57171869 C235.35213244 792.19822778 208.51425298 790.18436384 182.19648993 786.34641361 C178.74030101 785.84753905 175.27836108 785.39921112 171.81490445 784.95400882 C169.46941399 784.62716224 167.14906989 784.21848508 164.81786156 783.80346107 C160.65688202 783.19184145 157.14527887 782.99623425 153 784 C148.68913276 787.25194064 145.83736447 791.76966186 143.05265713 796.32370031 C141.69305651 798.48879095 140.12130167 800.42770369 138.46875 802.375 C137.97439453 802.97957031 137.48003906 803.58414063 136.97070312 804.20703125 C136.48537109 804.79871094 136.00003906 805.39039062 135.5 806 C131.44902353 810.96136239 127.44192825 815.95156557 123.5 821 C119.55804835 826.0484644 115.5496258 831.03751462 111.5 836 C105.57534029 843.26332952 99.76730184 850.61143615 94 858 C87.69256755 866.08053205 81.3175703 874.0964614 74.83642578 882.03857422 C71.34492684 886.3241126 67.9019522 890.64311384 64.5 895 C60.55804954 900.04846287 56.54969078 905.03756894 52.5 910 C47.97245928 915.54918059 43.50484138 921.13915637 39.09375 926.78125 C35.75845137 931.04463173 32.38729563 935.27783818 29 939.5 C25.12228784 944.3359113 21.26465807 949.18646784 17.4375 954.0625 C16.77355225 954.90772217 16.77355225 954.90772217 16.09619141 955.77001953 C13.68988093 958.83633659 11.29255776 961.9093994 8.90234375 964.98828125 C8.39582275 965.63853271 7.88930176 966.28878418 7.36743164 966.95874023 C6.38875611 968.21534489 5.41258951 969.47390847 4.43920898 970.73461914 C3.31598456 972.17479406 2.16120591 973.59027032 1 975 C0.67 975 0.34 975 0 975 C0 653.25 0 331.5 0 0 Z " fill="#FFFFFF" transform="translate(1585,1598)"/>
<path d="M0 0 C9.93931674 7.85950377 14.31269116 19.34137302 15.8359375 31.52734375 C6.5959375 31.52734375 -2.6440625 31.52734375 -12.1640625 31.52734375 C-13.1540625 28.55734375 -14.1440625 25.58734375 -15.1640625 22.52734375 C-19.72336215 16.61307152 -25.80223708 12.74057258 -33.1640625 11.52734375 C-41.4420271 10.63028037 -48.71131666 11.70509503 -56.1640625 15.52734375 C-57.1780791 16.51312787 -58.1817055 17.51000668 -59.1640625 18.52734375 C-59.8240625 18.52734375 -60.4840625 18.52734375 -61.1640625 18.52734375 C-61.4321875 19.06875 -61.7003125 19.61015625 -61.9765625 20.16796875 C-62.83530941 21.87416327 -63.71272891 23.57100267 -64.6015625 25.26171875 C-72.5762943 40.65295112 -73.7737287 55.61208056 -69.3828125 72.5390625 C-66.4831588 81.50049226 -61.53867692 88.9378434 -53.19921875 93.59765625 C-44.75873478 97.45338597 -36.35606071 97.44732012 -27.62109375 94.5625 C-20.5628676 91.58884352 -15.13233465 86.64889593 -12.1640625 79.52734375 C-11.5040625 76.55734375 -10.8440625 73.58734375 -10.1640625 70.52734375 C-19.0740625 70.52734375 -27.9840625 70.52734375 -37.1640625 70.52734375 C-37.1640625 63.59734375 -37.1640625 56.66734375 -37.1640625 49.52734375 C-19.6740625 49.52734375 -2.1840625 49.52734375 15.8359375 49.52734375 C15.8359375 71.30734375 15.8359375 93.08734375 15.8359375 115.52734375 C8.2459375 115.52734375 0.6559375 115.52734375 -7.1640625 115.52734375 C-7.6590625 111.07234375 -7.6590625 111.07234375 -8.1640625 106.52734375 C-8.69773437 107.0584375 -9.23140625 107.58953125 -9.78125 108.13671875 C-21.38125053 119.13464312 -33.35636858 120.00908415 -48.68359375 119.8046875 C-55.06898384 119.58689293 -60.42681766 118.37379753 -66.1640625 115.52734375 C-67.02902344 115.10324219 -67.89398437 114.67914062 -68.78515625 114.2421875 C-83.36396386 106.27598973 -92.10869327 92.49048782 -97.19921875 76.99609375 C-102.86663448 56.62093112 -101.28350252 34.2329753 -91.1640625 15.52734375 C-82.28637705 2.02463895 -69.66099624 -7.74700486 -53.70922852 -11.08447266 C-34.2167808 -14.05742152 -16.34559956 -11.12326901 0 0 Z " fill="#FFFFFF" transform="translate(1853.1640625,2454.47265625)"/>
<path d="M0 0 C1.71799805 0.01135986 1.71799805 0.01135986 3.47070312 0.02294922 C11.66828498 0.18293052 18.64488067 0.84838445 26.125 4.4375 C27.01832031 4.86160156 27.91164063 5.28570313 28.83203125 5.72265625 C38.44312595 10.89564425 44.077819 18.1814129 48.21484375 28.15234375 C49.125 31.4375 49.125 31.4375 50.125 41.4375 C41.545 41.4375 32.965 41.4375 24.125 41.4375 C22.805 37.8075 21.485 34.1775 20.125 30.4375 C17.8066144 27.82839037 17.8066144 27.82839037 15.125 26.4375 C14.485625 26.045625 13.84625 25.65375 13.1875 25.25 C4.28737835 21.74389147 -6.23185995 22.708467 -14.875 26.4375 C-17.86262875 28.76930781 -18.67828833 29.84736499 -19.875 33.4375 C-20.35729282 37.69775323 -20.19990797 39.86611012 -18.0625 43.625 C-10.91223082 51.15929264 3.32313982 52.43602932 13.0065918 54.86206055 C26.73843088 58.31882125 40.40618982 61.99591798 49.5625 73.5 C52.9216414 79.81518582 53.46370964 85.23105946 53.4375 92.25 C53.45361328 93.10142578 53.46972656 93.95285156 53.48632812 94.83007812 C53.49421864 105.19033047 50.35392561 112.98354947 43.125 120.4375 C31.84223449 130.01720656 18.79889881 131.62827421 4.5625 131.6875 C3.35013672 131.708125 2.13777344 131.72875 0.88867188 131.75 C-14.13126107 131.81442867 -27.64468441 128.23433632 -38.828125 117.82421875 C-46.20841471 109.21857559 -47.875 100.57004773 -47.875 89.4375 C-39.625 89.4375 -31.375 89.4375 -22.875 89.4375 C-21.555 92.7375 -20.235 96.0375 -18.875 99.4375 C-15.78639749 104.69956354 -11.44681776 106.48247622 -5.875 108.4375 C2.62525031 110.56256258 11.07677743 109.88868697 19.125 106.4375 C22.56854821 104.28353968 24.80572789 102.39531634 26.125 98.4375 C26.70189468 93.57510195 26.97774327 89.74503968 24.25 85.5625 C15.19526323 79.405279 4.14275486 77.58690185 -6.35546875 75.16992188 C-20.47712356 71.79770157 -32.75755729 67.48323324 -41.6484375 55.5625 C-46.62692159 46.93735558 -46.2467996 34.78986747 -44.1875 25.25390625 C-43.26978534 22.80284335 -42.22715917 20.67555656 -40.875 18.4375 C-40.47410156 17.73625 -40.07320312 17.035 -39.66015625 16.3125 C-34.13329887 7.85400523 -25.4767235 3.47272125 -15.92358398 1.02416992 C-10.62036952 0.0036186 -5.38641704 -0.04987423 0 0 Z " fill="#FFFFFF" transform="translate(2073.875,2442.5625)"/>
<path d="M0 0 C1.29349365 0.00523682 2.5869873 0.01047363 3.91967773 0.01586914 C4.9496714 0.01799156 4.9496714 0.01799156 6.00047302 0.02015686 C8.20144949 0.0257706 10.40232557 0.03832532 12.60327148 0.05102539 C14.09220231 0.05603863 15.58113473 0.06060184 17.07006836 0.06469727 C20.72700223 0.07574446 24.38387707 0.09301826 28.04077148 0.11352539 C32.3555653 9.86325158 35.82433186 19.86290084 39.28573608 29.9387207 C41.03025669 35.01553895 42.78789683 40.08781429 44.54467773 45.16040039 C44.90930618 46.21400757 45.27393463 47.26761475 45.64961243 48.35314941 C49.78674749 60.29299246 54.00338996 72.20450395 58.22827148 84.11352539 C58.58562378 85.12137085 58.94297607 86.12921631 59.31115723 87.16760254 C60.00632166 89.12798711 60.7016994 91.08829606 61.39730835 93.04852295 C62.05252598 94.89493437 62.70734525 96.74148721 63.36172485 98.5881958 C64.77064431 102.55974894 66.18734011 106.52772259 67.63696289 110.48461914 C67.87498123 111.13785156 68.11299957 111.79108398 68.35823059 112.46411133 C68.9755899 114.15462796 69.59837886 115.84315913 70.22167969 117.53149414 C71.04077148 120.11352539 71.04077148 120.11352539 71.04077148 123.11352539 C61.47077148 123.11352539 51.90077148 123.11352539 42.04077148 123.11352539 C40.88577148 119.54540039 39.73077148 115.97727539 38.54077148 112.30102539 C38.17532227 111.17978271 37.80987305 110.05854004 37.43334961 108.90332031 C37.00699219 107.57457886 37.00699219 107.57457886 36.57202148 106.21899414 C36.27875977 105.3130249 35.98549805 104.40705566 35.68334961 103.47363281 C35.04077148 101.11352539 35.04077148 101.11352539 35.04077148 98.11352539 C20.19077148 98.44352539 5.34077148 98.77352539 -9.95922852 99.11352539 C-12.59922852 107.03352539 -15.23922852 114.95352539 -17.95922852 123.11352539 C-27.52922852 123.11352539 -37.09922852 123.11352539 -46.95922852 123.11352539 C-43.58386816 111.8623242 -43.58386816 111.8623242 -41.88476562 107.08032227 C-41.50201477 105.99946854 -41.11926392 104.91861481 -40.72491455 103.80500793 C-40.3162616 102.6590062 -39.90760864 101.51300446 -39.48657227 100.33227539 C-38.83286652 98.49018745 -38.83286652 98.49018745 -38.16595459 96.61088562 C-36.98937281 93.29605858 -35.80959217 89.98237917 -34.62893295 86.66900253 C-33.89460918 84.60757588 -33.16110652 82.54585895 -32.42788696 80.48403931 C-28.94536837 70.69135439 -25.454479 60.90167252 -21.95922852 51.11352539 C-21.72472992 50.4566851 -21.49023132 49.79984482 -21.24862671 49.12310028 C-18.44707149 41.27598682 -15.64086237 33.43055866 -12.82620239 25.58813477 C-12.04075397 23.39914616 -11.25614506 21.20985614 -10.47238159 19.02026367 C-9.39146241 16.0021251 -8.30682498 12.98535164 -7.22094727 9.96899414 C-6.90220642 9.07725998 -6.58346558 8.18552582 -6.25506592 7.26676941 C-3.6812765 0.14122544 -3.6812765 0.14122544 0 0 Z M12.04077148 30.11352539 C8.52245327 38.33484953 5.77050984 46.77893425 3.03930664 55.28442383 C2.28293447 57.63791061 1.51962289 59.98907008 0.75561523 62.34008789 C0.27213299 63.83735161 -0.21095476 65.33474278 -0.69360352 66.83227539 C-0.92166687 67.53429077 -1.14973022 68.23630615 -1.38470459 68.95959473 C-2.55935992 72.46629555 -2.55935992 72.46629555 -2.95922852 76.11352539 C6.94077148 76.11352539 16.84077148 76.11352539 27.04077148 76.11352539 C22.57972293 60.71571262 17.81768218 45.41556784 13.04077148 30.11352539 C12.71077148 30.11352539 12.38077148 30.11352539 12.04077148 30.11352539 Z " fill="#FFFFFF" transform="translate(1919.959228515625,2446.886474609375)"/>
<path d="M0 0 C12.24509867 12.63202558 13.0390625 27.20971932 13.0390625 44.16796875 C-7.4209375 44.16796875 -27.8809375 44.16796875 -48.9609375 44.16796875 C-46.9466738 53.23215541 -45.51216113 57.94019855 -37.9609375 63.16796875 C-32.29447693 65.05678894 -26.17524124 64.89264997 -20.5234375 63.04296875 C-17.71715907 61.32252904 -17.71715907 61.32252904 -16.62890625 58.07421875 C-13.9609375 55.16796875 -13.9609375 55.16796875 -11.20336914 54.68017578 C-7.68906312 54.57630467 -4.22367337 54.64660476 -0.7109375 54.79296875 C0.51109375 54.82003906 1.733125 54.84710937 2.9921875 54.875 C6.00958991 54.94572037 9.0234382 55.04437759 12.0390625 55.16796875 C10.6529423 64.38844031 5.53752576 72.526923 -1.9609375 78.16796875 C-11.41651583 83.65990781 -18.3145321 85.36342999 -29.0859375 85.41796875 C-30.08109375 85.43859375 -31.07625 85.45921875 -32.1015625 85.48046875 C-43.88686709 85.54201081 -53.99222829 82.22830536 -62.96875 74.421875 C-73.4173029 63.54361971 -75.49114986 47.99708363 -75.2109375 33.49609375 C-74.32753201 21.73575813 -71.19423885 8.31630183 -61.9609375 0.16796875 C-44.25631909 -13.14636341 -17.2224013 -16.09025141 0 0 Z M-44.7109375 16.91796875 C-47.58345742 20.65882634 -47.58345742 20.65882634 -48.9609375 28.16796875 C-37.0809375 28.16796875 -25.2009375 28.16796875 -12.9609375 28.16796875 C-13.7711986 20.12325684 -13.7711986 20.12325684 -17.9609375 14.16796875 C-23.00161921 10.25886865 -27.02679856 9.52446784 -33.37890625 9.78515625 C-38.52622248 10.54829844 -41.15588492 13.36291617 -44.7109375 16.91796875 Z " fill="#FFFFFF" transform="translate(2444.9609375,2486.83203125)"/>
<path d="M0 0 C9.51656551 10.63736016 13.23220927 24.05744284 12.78125 38.1875 C11.56932806 51.38398337 7.84366887 64.28342407 -2.16015625 73.5 C-15.39113739 83.39562529 -29.60181927 84.38452364 -45.5 83.25 C-56.48860542 81.52928676 -66.02315311 76.03122055 -72.9375 67.25 C-79.73704694 57.21723909 -81.85186147 47.90386643 -81.8125 35.875 C-81.82861328 34.89789062 -81.84472656 33.92078125 -81.86132812 32.9140625 C-81.86965076 20.39681542 -77.70377012 9.16763593 -69.20703125 -0.125 C-50.87834839 -17.57289948 -18.40537726 -16.90928799 0 0 Z M-50.3125 15 C-56.33519396 23.94800245 -57.28724075 32.86111969 -55.875 43.5 C-54.49907065 50.50806684 -52.02378704 55.28144611 -46.375 59.6875 C-40.53954049 62.85894539 -35.01640554 62.84465298 -28.5 62.25 C-23.16687999 60.66981629 -19.43478351 58.03261017 -16.5 53.25 C-11.59105525 43.36577341 -11.78196431 32.78575222 -14.5 22.25 C-16.8767995 16.6118027 -20.03988928 13.15431421 -25.5 10.25 C-34.23201404 7.5562731 -43.69112311 8.52576482 -50.3125 15 Z " fill="#FFFFFF" transform="translate(2298.5,2488.75)"/>
<path d="M0 0 C7.92 0 15.84 0 24 0 C24 8.25 24 16.5 24 25 C40.5 25 57 25 74 25 C74 30.94 74 36.88 74 43 C57.5 43 41 43 24 43 C24.1546875 52.6215625 24.1546875 52.6215625 24.3125 62.4375 C24.33739502 64.44384521 24.36229004 66.45019043 24.38793945 68.51733398 C24.42027143 70.13527658 24.453651 71.75319872 24.48828125 73.37109375 C24.49764709 74.59753601 24.49764709 74.59753601 24.50720215 75.84875488 C24.66287642 82.18045201 25.40889263 89.14084704 29.8125 94 C34.06281458 95.94300095 37.09554053 96.18395786 41.6875 95.25 C45.48138203 93.87587507 45.48138203 93.87587507 48 91 C49.76311756 86.52199346 50.29104287 82.64932822 50.4140625 77.8515625 C50.43342865 77.19417084 50.4527948 76.53677917 50.4727478 75.85946655 C50.53202461 73.78143865 50.57871794 71.70335376 50.625 69.625 C50.66322778 68.2070085 50.70228223 66.78903903 50.7421875 65.37109375 C50.83922356 61.91418405 50.91919791 58.45747888 51 55 C58.59 55 66.18 55 74 55 C74.11573349 60.0511237 74.21496591 65.09752496 74.2746582 70.14892578 C74.29957583 71.86165069 74.33352329 73.57427181 74.37719727 75.28662109 C74.68928364 87.85085126 74.06027219 99.73340038 64.9453125 109.46875 C53.13784783 118.76297922 40.31649225 118.94112936 26 118 C17.72755522 116.58367085 11.41154582 112.36780291 6 106 C1.19607067 98.3458925 -0.15157049 92.05173449 -0.11352539 83.10058594 C-0.11367142 82.20267334 -0.11381744 81.30476074 -0.1139679 80.37963867 C-0.11327176 77.41452613 -0.10549329 74.44947656 -0.09765625 71.484375 C-0.09579101 69.42742955 -0.09436761 67.37048365 -0.09336853 65.3135376 C-0.0895517 59.90155815 -0.07972851 54.48960556 -0.06866455 49.07763672 C-0.05843252 43.55436568 -0.05386707 38.03109029 -0.04882812 32.5078125 C-0.03810551 21.6718613 -0.02051543 10.83593709 0 0 Z " fill="#FFFFFF" transform="translate(2135,2454)"/>
<path d="M0 0 C0 8.58 0 17.16 0 26 C-2.165625 26.103125 -4.33125 26.20625 -6.5625 26.3125 C-13.89795151 26.85970102 -18.26456664 27.50771627 -23.8125 32.5625 C-28.9131807 39.35350673 -28.32036959 49.37902795 -28.4140625 57.4765625 C-28.43342865 58.52782318 -28.4527948 59.57908386 -28.4727478 60.66220093 C-28.53199302 63.98305431 -28.57870678 67.30394341 -28.625 70.625 C-28.66323054 72.89194127 -28.70228513 75.15886879 -28.7421875 77.42578125 C-28.83918232 82.95044479 -28.91918757 88.47498187 -29 94 C-37.25 94 -45.5 94 -54 94 C-54 63.97 -54 33.94 -54 3 C-46.08 3 -38.16 3 -30 3 C-29.67 5.31 -29.34 7.62 -29 10 C-28.57589844 9.60167969 -28.15179687 9.20335938 -27.71484375 8.79296875 C-19.16748153 1.07216464 -11.1461255 0 0 0 Z " fill="#FFFFFF" transform="translate(2372,2476)"/>
<path d="M0 0 C8.58 0 17.16 0 26 0 C26 8.58 26 17.16 26 26 C17.42 26 8.84 26 0 26 C0 17.42 0 8.84 0 0 Z " fill="#FFFFFF" transform="translate(1996,2544)"/>
</svg>
